<?xml version="1.0" encoding="utf-8"?>
<!-- Generator: Adobe Illustrator 27.9.0, SVG Export Plug-In . SVG Version: 6.00 Build 0)  -->
<svg version="1.1" id="Layer_1" xmlns="http://www.w3.org/2000/svg" xmlns:xlink="http://www.w3.org/1999/xlink" x="0px" y="0px"
	 viewBox="0 0 270 270" style="enable-background:new 0 0 270 270;" xml:space="preserve">
<style type="text/css">
	.st0{fill:none;stroke:#1D1D1B;stroke-width:5;stroke-miterlimit:10;}
</style>
<rect x="71.56" y="110.99" class="st0" width="126.66" height="47.13"/>
<g>
	<path d="M116.59,141.27h-9.49l-1.63,4.63h-3.88l8.12-22.7h4.3l8.12,22.7h-3.91L116.59,141.27z M115.54,138.24l-3.68-10.53
		l-3.72,10.53H115.54z"/>
	<path d="M139.4,124.63c1.81,0.92,3.22,2.25,4.21,3.98c0.99,1.73,1.48,3.75,1.48,6.05c0,2.3-0.5,4.3-1.48,6
		c-0.99,1.7-2.39,2.99-4.21,3.9c-1.82,0.9-3.93,1.35-6.34,1.35h-7.4v-22.66h7.4C135.47,123.24,137.58,123.7,139.4,124.63z
		 M139.15,140.72c1.41-1.44,2.12-3.46,2.12-6.07c0-2.63-0.71-4.68-2.12-6.16c-1.41-1.48-3.45-2.22-6.1-2.22h-3.68v16.6h3.68
		C135.71,142.87,137.74,142.15,139.15,140.72z"/>
	<path d="M162.52,124.63c1.81,0.92,3.22,2.25,4.21,3.98c0.99,1.73,1.48,3.75,1.48,6.05c0,2.3-0.5,4.3-1.48,6
		c-0.99,1.7-2.39,2.99-4.21,3.9c-1.82,0.9-3.93,1.35-6.34,1.35h-7.4v-22.66h7.4C158.59,123.24,160.7,123.7,162.52,124.63z
		 M162.27,140.72c1.41-1.44,2.12-3.46,2.12-6.07c0-2.63-0.71-4.68-2.12-6.16c-1.41-1.48-3.45-2.22-6.1-2.22h-3.68v16.6h3.68
		C158.83,142.87,160.86,142.15,162.27,140.72z"/>
</g>
</svg>
