<?xml version="1.0" encoding="utf-8"?>
<!-- Generator: Adobe Illustrator 27.9.0, SVG Export Plug-In . SVG Version: 6.00 Build 0)  -->
<svg version="1.1" id="Layer_1" xmlns="http://www.w3.org/2000/svg" xmlns:xlink="http://www.w3.org/1999/xlink" x="0px" y="0px"
	 viewBox="0 0 270 270" style="enable-background:new 0 0 270 270;" xml:space="preserve">
<style type="text/css">
	.st0{fill:#E26D5C;}
	.st1{fill:#472D30;}
	.st2{fill:none;stroke:#1D1D1B;stroke-width:14;stroke-miterlimit:10;}
	.st3{fill:none;stroke:#1D1D1B;stroke-width:5;stroke-miterlimit:10;}
</style>
<rect x="79.62" y="102.45" class="st0" width="109.79" height="118.04"/>
<rect x="80.22" y="102.54" class="st1" width="108.6" height="39.15"/>
<g>
	<line class="st2" x1="174.65" y1="38.45" x2="168.24" y2="64.32"/>
	<rect x="76.05" y="66.54" class="st2" width="117.7" height="158.81"/>
	<line class="st2" x1="76.05" y1="98.45" x2="193.75" y2="98.45"/>
	<circle class="st3" cx="119.7" cy="143.47" r="26.38"/>
	<circle class="st3" cx="119.7" cy="143.47" r="26.38"/>
	<line class="st3" x1="114.07" y1="117.69" x2="125.27" y2="168.9"/>
	<circle class="st3" cx="119.7" cy="143.47" r="26.38"/>
	<line class="st3" x1="94.57" y1="135.46" x2="144.51" y2="151.37"/>
	<line class="st3" x1="100.2" y1="161.24" x2="138.95" y2="125.94"/>
	<circle class="st3" cx="155.49" cy="190.45" r="20.59"/>
	<circle class="st3" cx="155.49" cy="190.45" r="20.59"/>
	<line class="st3" x1="167.18" y1="207.41" x2="143.97" y2="173.72"/>
	<line class="st3" x1="176.02" y1="188.82" x2="135.24" y2="192.07"/>
	<circle class="st3" cx="155.49" cy="190.45" r="20.59"/>
	<line class="st3" x1="164.34" y1="171.86" x2="146.76" y2="208.8"/>
</g>
</svg>
