<?xml version="1.0" encoding="utf-8"?>
<!-- Generator: Adobe Illustrator 27.9.0, SVG Export Plug-In . SVG Version: 6.00 Build 0)  -->
<svg version="1.1" id="Layer_1" xmlns="http://www.w3.org/2000/svg" xmlns:xlink="http://www.w3.org/1999/xlink" x="0px" y="0px"
	 viewBox="0 0 270 270" style="enable-background:new 0 0 270 270;" xml:space="preserve">
<style type="text/css">
	.st0{fill:#E26D5C;}
	.st1{fill:#472D30;}
	.st2{fill:none;stroke:#1D1D1B;stroke-width:14;stroke-miterlimit:10;}
	.st3{fill:none;stroke:#1D1D1B;stroke-width:5;stroke-miterlimit:10;}
</style>
<rect x="79.57" y="91.07" class="st0" width="109.79" height="118.04"/>
<rect x="80.17" y="91.15" class="st1" width="108.6" height="39.15"/>
<rect x="76" y="55.15" class="st2" width="117.7" height="158.81"/>
<line class="st2" x1="76" y1="87.07" x2="193.7" y2="87.07"/>
<circle class="st3" cx="119.66" cy="132.08" r="26.38"/>
<circle class="st3" cx="119.66" cy="132.08" r="26.38"/>
<line class="st3" x1="114.02" y1="106.31" x2="125.22" y2="157.51"/>
<circle class="st3" cx="119.66" cy="132.08" r="26.38"/>
<line class="st3" x1="94.52" y1="124.08" x2="144.46" y2="139.98"/>
<line class="st3" x1="100.16" y1="149.85" x2="138.9" y2="114.55"/>
<circle class="st3" cx="155.45" cy="179.07" r="20.59"/>
<circle class="st3" cx="155.45" cy="179.07" r="20.59"/>
<line class="st3" x1="167.13" y1="196.03" x2="143.92" y2="162.34"/>
<line class="st3" x1="175.98" y1="177.43" x2="135.19" y2="180.68"/>
<circle class="st3" cx="155.45" cy="179.07" r="20.59"/>
<line class="st3" x1="164.3" y1="160.47" x2="146.72" y2="197.42"/>
</svg>
