<?xml version="1.0" encoding="utf-8"?>
<!-- Generator: Adobe Illustrator 27.9.0, SVG Export Plug-In . SVG Version: 6.00 Build 0)  -->
<svg version="1.1" id="Layer_1" xmlns="http://www.w3.org/2000/svg" xmlns:xlink="http://www.w3.org/1999/xlink" x="0px" y="0px"
	 viewBox="0 0 270 270" style="enable-background:new 0 0 270 270;" xml:space="preserve">
<style type="text/css">
	.st0{fill:#472D30;}
	.st1{fill:none;stroke:#1D1D1B;stroke-width:14;stroke-miterlimit:10;}
</style>
<g>
	<path class="st0" d="M175.36,120.18c-35.97-0.23-71.94-0.45-107.91-0.68c-0.23,2.58-0.33,6.25,0.34,10.55
		c3.02,19.28,18.39,30.54,21.45,32.68c14.47,10.13,34.08,12.49,51.06,5.79C159.88,160.79,173.46,141.99,175.36,120.18z"/>
	<path class="st1" d="M121.28,174.7L121.28,174.7c-32.5,0-58.85-26.35-58.85-58.85V95.3h117.7v20.55
		C180.13,148.35,153.79,174.7,121.28,174.7z"/>
	<path class="st1" d="M188.67,133.09h-8.54V95.3h8.54c10.43,0,18.89,8.46,18.89,18.89v0C207.57,124.63,199.11,133.09,188.67,133.09z
		"/>
	<line class="st1" x1="62.44" y1="116.44" x2="180.13" y2="116.44"/>
</g>
</svg>
