<?xml version="1.0" encoding="iso-8859-1"?>
<!-- Uploaded to: SVG Repo, www.svgrepo.com, Generator: SVG Repo Mixer Tools -->
<svg version="1.1" id="Layer_1" xmlns="http://www.w3.org/2000/svg" xmlns:xlink="http://www.w3.org/1999/xlink" 
	 viewBox="0 0 512 512" xml:space="preserve">
<polygon style="fill:#FFFFFF;" points="89.636,459.185 127.681,504.147 392.837,504.147 430.881,459.185 "/>
<polygon style="fill:#CCCCCC;" points="430.881,459.185 260.258,459.185 260.258,504.147 392.837,504.147 "/>
<polygon style="fill:#C0AB91;" points="325.174,436.613 195.342,436.613 160.79,388.45 137.755,214.642 382.761,214.642 
	359.727,388.446 "/>
<polygon style="fill:#957856;" points="382.761,214.642 359.727,388.45 325.174,436.613 260.258,436.613 260.258,214.642 "/>
<path d="M456.244,451.334H64.273v15.706h21.721L124.038,512H396.48l38.044-44.961h21.721V451.334z M389.195,496.294H131.322
	l-24.754-29.255H413.95L389.195,496.294z"/>
<path d="M107.868,341.061c11.759,9.466,26.055,15.358,40.979,17.036l4.159,31.384l0.258,1.949l38.048,53.035h137.894l38.047-53.04
	l22.39-168.931h16.155v-15.706H114.721v15.706h16.155l15.831,119.451c-10.557-1.851-20.582-6.349-28.989-13.118
	c-11.276-9.077-19.187-21.864-22.278-36.007l-20.175-92.314h353.567v-15.706H55.756l24.339,111.373
	C83.949,313.804,93.812,329.746,107.868,341.061z M373.8,222.495l-21.599,162.971l-31.056,43.295H199.373l-31.056-43.292
	l-21.6-162.974H373.8z"/>
<rect x="221.804" width="15.706" height="143.444"/>
<rect x="279.391" y="34.552" width="15.706" height="108.892"/>
</svg>