<?xml version="1.0" encoding="iso-8859-1"?>
<!-- Uploaded to: SVG Repo, www.svgrepo.com, Generator: SVG Repo Mixer Tools -->
<svg height="800px" width="800px" version="1.1" id="Layer_1" xmlns="http://www.w3.org/2000/svg" xmlns:xlink="http://www.w3.org/1999/xlink" 
	 viewBox="0 0 512 512" xml:space="preserve">
<path style="fill:#771700;" d="M373.02,167.944h-29.579v-19.998H107.214v236.867c0,65.139,53.153,118.435,118.112,118.435h0.004
	c61.286,0,112.047-47.434,117.599-107.495h30.091c22.342,0,40.518-18.213,40.518-40.599V208.543
	C413.538,186.156,395.362,167.944,373.02,167.944z M391.658,355.154c0,10.321-8.36,18.719-18.638,18.719h-29.579V189.824h29.579
	c10.277,0,18.638,8.398,18.638,18.719V355.154z"/>
<path style="fill:#981700;" d="M107.214,384.813V147.946h147.692v236.867c0,49.463-30.65,92.091-73.845,109.746
	C137.867,476.904,107.214,434.277,107.214,384.813z"/>
<path style="fill:#B76700;" d="M298.912,147.946v44.162c0,12.138-9.9,22.063-22.002,22.063c-12.104,0-22.006-9.925-22.006-22.063
	v36.144c0,12.137-9.898,22.062-22,22.062c-12.104,0-22.004-9.925-22.004-22.062v-80.306H298.912z"/>
<path d="M373.02,167.944h-20.827v-19.996c0-4.833-3.919-8.752-8.752-8.752h-44.53H210.9H107.214c-4.834,0-8.752,3.919-8.752,8.752
	v236.867C98.462,454.945,155.372,512,225.326,512h0.004c31.716,0,62.125-11.911,85.627-33.536
	c23.341-21.48,37.791-50.568,40.688-81.905c0.025-0.26,0.037-0.524,0.037-0.787v-0.019h21.339c22.342,0,40.518-18.213,40.518-40.599
	V208.543C413.538,186.156,395.362,167.944,373.02,167.944z M290.16,156.699v35.409c0,7.34-5.944,13.311-13.25,13.311
	c-7.308,0-13.254-5.971-13.254-13.311c0-4.833-3.919-8.752-8.752-8.752s-8.752,3.919-8.752,8.752v36.144
	c0,7.339-5.943,13.31-13.247,13.31c-7.307,0-13.252-5.971-13.252-13.31v-71.553H290.16z M334.689,167.924l-0.511,227.408
	c-5.346,55.636-53.082,99.164-108.848,99.164h-0.004c-60.302,0-109.36-49.202-109.36-109.683V156.699h86.182v71.553
	c0,16.991,13.797,30.814,30.756,30.814c16.956,0,30.752-13.823,30.752-30.814v-8.339c4.016,1.929,8.511,3.01,13.254,3.01
	c16.958,0,30.754-13.824,30.754-30.815v-35.409h27.026V167.924z M391.658,355.154c0,10.321-8.36,18.719-18.638,18.719h-21.29
	l0.414-184.05h20.875c10.277,0,18.638,8.398,18.638,18.719v146.613H391.658z M244.487,112.008
	c-15.53-17.366-12.947-49.52-0.914-67.515c6.105-9.132,8.75-22.829,6.581-34.083c-0.915-4.746,2.191-9.335,6.937-10.25
	c4.747-0.915,9.336,2.191,10.251,6.937c3.03,15.72-0.587,34.216-9.217,47.125c-9.031,13.508-9.323,36.351-0.589,46.117
	c3.222,3.604,2.913,9.136-0.689,12.358c-1.669,1.493-3.755,2.229-5.831,2.229C248.61,114.927,246.216,113.942,244.487,112.008z
	 M193.099,112.009c-15.525-17.371-12.942-49.524-0.912-67.515c6.106-9.127,8.751-22.824,6.586-34.086
	c-0.912-4.746,2.195-9.334,6.942-10.248c4.748-0.914,9.335,2.196,10.248,6.942c3.026,15.728-0.595,34.225-9.225,47.124
	c-9.028,13.503-9.319,36.349-0.586,46.118c3.221,3.605,2.911,9.137-0.694,12.358c-1.669,1.492-3.754,2.226-5.829,2.226
	C197.223,114.928,194.829,113.943,193.099,112.009z"/>
</svg>