<?xml version="1.0" encoding="utf-8"?>
<!-- Generator: Adobe Illustrator 27.9.0, SVG Export Plug-In . SVG Version: 6.00 Build 0)  -->
<svg version="1.1" id="Layer_1" xmlns="http://www.w3.org/2000/svg" xmlns:xlink="http://www.w3.org/1999/xlink" x="0px" y="0px"
	 viewBox="0 0 270 270" style="enable-background:new 0 0 270 270;" xml:space="preserve">
<style type="text/css">
	.st0{fill:none;stroke:#1D1D1B;stroke-width:5;stroke-miterlimit:10;}
</style>
<rect x="86.02" y="110.99" class="st0" width="97.76" height="47.13"/>
<g>
	<path d="M119.95,125.42v18.3h-3v-8.01h-8.61v8.01h-3v-18.3h3v7.85h8.61v-7.85H119.95z"/>
	<path d="M126.9,127.84v5.37h6.32v2.45h-6.32v5.61h7.11v2.45H123.9v-18.33h10.11v2.45H126.9z"/>
	<path d="M147.21,143.72l-4.21-7.32h-2.29v7.32h-3v-18.3h6.32c1.4,0,2.59,0.25,3.57,0.74c0.97,0.49,1.7,1.15,2.19,1.98
		c0.48,0.83,0.72,1.75,0.72,2.77c0,1.19-0.35,2.28-1.04,3.25c-0.69,0.97-1.76,1.64-3.2,1.99l4.53,7.58H147.21z M140.7,134h3.32
		c1.12,0,1.97-0.28,2.54-0.84s0.86-1.32,0.86-2.27c0-0.95-0.28-1.69-0.84-2.23c-0.56-0.54-1.41-0.8-2.55-0.8h-3.32V134z"/>
	<path d="M157.35,127.84v5.37h6.32v2.45h-6.32v5.61h7.11v2.45h-10.11v-18.33h10.11v2.45H157.35z"/>
</g>
</svg>
