<?xml version="1.0" encoding="iso-8859-1"?>
<!-- Uploaded to: SVG Repo, www.svgrepo.com, Generator: SVG Repo Mixer Tools -->
<svg version="1.1" id="Layer_1" xmlns="http://www.w3.org/2000/svg" xmlns:xlink="http://www.w3.org/1999/xlink" 
	 viewBox="0 0 512 512" xml:space="preserve">
<circle style="fill:#324A5E;" cx="256" cy="256" r="256"/>
<path style="fill:#2B3B4E;" d="M510.581,283.024L369.778,142.219L246.232,264.185L133.46,395.838l116.077,116.077
	c2.148,0.053,4.303,0.083,6.463,0.083C388.256,511.998,497.08,411.703,510.581,283.024z"/>
<path style="fill:#E6F3FF;" d="M341.476,426.663h-85.62c-15.631,0-28.301-12.671-28.301-28.301V142.219h142.222v256.143
	C369.778,413.992,357.107,426.663,341.476,426.663z"/>
<path style="fill:#CFDBE6;" d="M297.374,142.219v284.444h44.103c15.631,0,28.301-12.671,28.301-28.301V142.219H297.374z"/>
<path style="fill:#FFD15D;" d="M227.556,238.468v159.896c0,15.631,12.671,28.301,28.301,28.301h85.62
	c15.631,0,28.301-12.671,28.301-28.301V251.125C320.422,260.184,274.389,244.395,227.556,238.468z"/>
<path style="fill:#F9B54C;" d="M297.374,250.361v176.302h44.103c15.631,0,28.301-12.671,28.301-28.301V251.123
	C344.979,255.676,321.019,253.954,297.374,250.361z"/>
<circle style="fill:#F4A200;" cx="199.111" cy="341.333" r="85.333"/>
<path style="fill:#D38907;" d="M284.444,341.33c0-47.128-38.205-85.333-85.333-85.333v170.667
	C246.239,426.663,284.444,388.458,284.444,341.33z"/>
<path style="fill:#79D720;" d="M228.109,230.184c-18.339,9.645-29.391,27.579-30.996,46.704
	c16.841,9.423,37.997,10.419,56.336,0.774c18.339-9.645,29.391-27.579,30.996-46.704
	C267.604,221.536,246.448,220.541,228.109,230.184z"/>
<path style="fill:#67AF1B;" d="M197.23,275.87c-0.034,0.341-0.088,0.678-0.117,1.019c16.841,9.423,37.997,10.418,56.335,0.772
	c18.339-9.645,29.391-27.581,30.996-46.704c-0.117-0.066-0.24-0.122-0.359-0.186L197.23,275.87z"/>
<rect x="193.939" y="243.933" style="fill:#599B13;" width="10.343" height="40.512"/>
<rect x="199.111" y="243.933" style="fill:#44750C;" width="5.172" height="40.512"/>
</svg>