<?xml version="1.0" encoding="iso-8859-1"?>
<!-- Uploaded to: SVG Repo, www.svgrepo.com, Generator: SVG Repo Mixer Tools -->
<svg height="800px" width="800px" version="1.1" id="Layer_1" xmlns="http://www.w3.org/2000/svg" xmlns:xlink="http://www.w3.org/1999/xlink" 
	 viewBox="0 0 512 512" xml:space="preserve">
<path style="fill:#97BAA8;" d="M319.311,434.931v68.317H135.046v-68.317L319.311,434.931L319.311,434.931z"/>
<path style="fill:#B1D7C5;" d="M341.673,59.023l-22.362,397.789H135.046L112.684,59.023h53.537h97.836H341.673z"/>
<path style="fill:#BC9A5E;" d="M333.306,207.864l-13.995,248.948H135.046l-13.995-248.948H333.306z"/>
<path style="fill:#DDC98B;" d="M119.206,175.043h215.945l-3.69,65.641H122.896L119.206,175.043z"/>
<path d="M397.128,142.295h-51.371l4.654-82.782c0.136-2.402-0.725-4.756-2.378-6.504c-1.653-1.749-3.953-2.739-6.361-2.739h-42.982
	l2.423-41c0.286-4.826-3.395-8.968-8.22-9.253c-4.83-0.283-8.968,3.396-9.253,8.22l-2.484,42.033h-58.474
	c-6.924-10.895-9.887-26.76-7.359-39.858c0.916-4.746-2.19-9.335-6.936-10.251c-4.746-0.916-9.335,2.189-10.251,6.936
	c-2.697,13.982-0.764,29.871,4.88,43.173h-25.578c-6.922-10.892-9.886-26.757-7.362-39.861c0.915-4.747-2.192-9.335-6.938-10.25
	c-4.749-0.912-9.336,2.192-10.25,6.939c-2.693,13.983-0.758,29.872,4.883,43.171h-45.087c-2.407,0-4.708,0.99-6.36,2.739
	c-1.653,1.749-2.514,4.101-2.378,6.504l22.349,397.544v46.192c0,4.833,3.919,8.752,8.752,8.752h184.265
	c4.833,0,8.752-3.919,8.752-8.752v-46.192l7.324-130.294h26.795c25.301,0,45.885-20.605,45.885-45.931V153.235
	C408.068,147.193,403.171,142.295,397.128,142.295z M167.178,67.774c7.14,16.309,6.132,37.999-3.203,48.42
	c-3.225,3.6-2.92,9.134,0.68,12.358c1.671,1.497,3.757,2.233,5.837,2.233c2.402,0,4.794-0.982,6.523-2.913
	c13.51-15.083,14.922-40.03,8.696-60.099h26.713c7.138,16.307,6.13,37.998-3.204,48.422c-3.224,3.602-2.919,9.134,0.683,12.358
	c1.671,1.496,3.757,2.232,5.834,2.232c2.402,0,4.795-0.984,6.524-2.913c13.507-15.085,14.919-40.032,8.695-60.1h49.166
	l-19.971,337.84c-0.286,4.826,3.395,8.968,8.22,9.253c0.176,0.011,0.351,0.015,0.525,0.015c4.598,0,8.453-3.586,8.729-8.236
	l20.033-338.873h34.759l-6.002,106.768c0,0-0.001,0.007-0.001,0.01l-9.54,169.697l-5.835,103.81H143.32l-12.252-217.928
	l-2.604-46.334h113.233c4.833,0,8.752-3.919,8.752-8.752c0-4.833-3.919-8.752-8.752-8.752H127.479l-5.538-98.517
	C121.941,67.774,167.178,67.774,167.178,67.774z M143.798,494.496v-28.932h166.761v28.932H143.798z M386.188,280.831
	c0,13.262-10.768,24.051-24.005,24.051h-25.565l7.91-140.707h41.66V280.831z"/>
</svg>