<?xml version="1.0" encoding="utf-8"?>
<!-- Generator: Adobe Illustrator 27.9.0, SVG Export Plug-In . SVG Version: 6.00 Build 0)  -->
<svg version="1.1" id="Layer_1" xmlns="http://www.w3.org/2000/svg" xmlns:xlink="http://www.w3.org/1999/xlink" x="0px" y="0px"
	 viewBox="0 0 270 270" style="enable-background:new 0 0 270 270;" xml:space="preserve">
<style type="text/css">
	.st0{fill:#472D30;}
	.st1{fill:none;stroke:#1D1D1B;stroke-width:14;stroke-miterlimit:10;}
</style>
<g>
	<path class="st0" d="M148.57,174.02c-21.56,0.45-43.12,0.91-64.68,1.36c0.71,2.2,1.99,5.23,4.43,8.17
		c8.93,10.79,26.22,11.66,38.13,7.83C139.04,187.34,146.01,177.93,148.57,174.02z"/>
	<path class="st1" d="M116.11,193.85L116.11,193.85c-32.5,0-58.85-26.35-58.85-58.85V76.15h117.7V135
		C174.96,167.5,148.61,193.85,116.11,193.85z"/>
	<path class="st1" d="M193.85,127.52h-18.89V89.73h18.89c10.43,0,18.89,8.46,18.89,18.89v0
		C212.74,119.06,204.29,127.52,193.85,127.52z"/>
	<line class="st1" x1="70.82" y1="172.59" x2="162.45" y2="172.59"/>
</g>
</svg>
