<?xml version="1.0" encoding="utf-8"?>
<!-- Generator: Adobe Illustrator 27.9.0, SVG Export Plug-In . SVG Version: 6.00 Build 0)  -->
<svg version="1.1" id="Layer_1" xmlns="http://www.w3.org/2000/svg" xmlns:xlink="http://www.w3.org/1999/xlink" x="0px" y="0px"
	 viewBox="0 0 270 270" style="enable-background:new 0 0 270 270;" xml:space="preserve">
<style type="text/css">
	.st0{fill:#FFE1A8;}
	.st1{fill:none;stroke:#1D1D1B;stroke-width:14;stroke-miterlimit:10;}
	.st2{fill:none;stroke:#1D1D1B;stroke-width:5;stroke-miterlimit:10;}
	.st3{fill:#1D1D1B;stroke:#1D1D1B;stroke-width:5;stroke-miterlimit:10;}
</style>
<rect x="80.6" y="102.45" class="st0" width="109.79" height="118.04"/>
<line class="st1" x1="173.8" y1="38.45" x2="167.39" y2="64.32"/>
<rect x="76.05" y="66.54" class="st1" width="117.7" height="158.81"/>
<line class="st1" x1="76.05" y1="98.45" x2="193.75" y2="98.45"/>
<rect x="95.1" y="167.89" transform="matrix(0.4247 0.9053 -0.9053 0.4247 234.1351 2.3876)" class="st2" width="40.17" height="35.06"/>
<circle class="st2" cx="102.26" cy="126.11" r="7.66"/>
<circle class="st2" cx="168.43" cy="193.08" r="7.66"/>
<circle class="st3" cx="94.6" cy="157.07" r="2.65"/>
<circle class="st3" cx="149.99" cy="182.77" r="2.65"/>
<circle class="st3" cx="171.08" cy="174.28" r="2.65"/>
<circle class="st3" cx="149.99" cy="207.03" r="2.65"/>
<circle class="st2" cx="155.5" cy="137.68" r="20.59"/>
<circle class="st2" cx="155.5" cy="137.68" r="20.59"/>
<line class="st2" x1="167.18" y1="154.64" x2="143.97" y2="120.95"/>
<circle class="st2" cx="155.5" cy="137.68" r="20.59"/>
<line class="st2" x1="176.02" y1="136.05" x2="135.24" y2="139.3"/>
<line class="st2" x1="164.34" y1="119.09" x2="146.77" y2="156.03"/>
</svg>
