<?xml version="1.0" encoding="utf-8"?>
<!-- Generator: Adobe Illustrator 27.9.0, SVG Export Plug-In . SVG Version: 6.00 Build 0)  -->
<svg version="1.1" id="Layer_1" xmlns="http://www.w3.org/2000/svg" xmlns:xlink="http://www.w3.org/1999/xlink" x="0px" y="0px"
	 viewBox="0 0 270 270" style="enable-background:new 0 0 270 270;" xml:space="preserve">
<style type="text/css">
	.st0{fill:#FFE1A8;}
	.st1{fill:none;stroke:#1D1D1B;stroke-width:14;stroke-miterlimit:10;}
	.st2{fill:none;stroke:#1D1D1B;stroke-width:5;stroke-miterlimit:10;}
	.st3{fill:#1D1D1B;stroke:#1D1D1B;stroke-width:5;stroke-miterlimit:10;}
</style>
<rect x="80.55" y="91.07" class="st0" width="109.79" height="118.04"/>
<rect x="76" y="55.15" class="st1" width="117.7" height="158.81"/>
<line class="st1" x1="76" y1="87.07" x2="193.7" y2="87.07"/>
<rect x="95.06" y="156.5" transform="matrix(0.4247 0.9053 -0.9053 0.4247 223.8025 -4.1208)" class="st2" width="40.17" height="35.06"/>
<circle class="st2" cx="102.21" cy="114.73" r="7.66"/>
<circle class="st2" cx="168.39" cy="181.69" r="7.66"/>
<circle class="st3" cx="94.55" cy="145.69" r="2.65"/>
<circle class="st3" cx="149.94" cy="171.38" r="2.65"/>
<circle class="st3" cx="171.04" cy="162.9" r="2.65"/>
<circle class="st3" cx="149.94" cy="195.65" r="2.65"/>
<circle class="st2" cx="155.45" cy="126.3" r="20.59"/>
<circle class="st2" cx="155.45" cy="126.3" r="20.59"/>
<line class="st2" x1="167.13" y1="143.26" x2="143.93" y2="109.56"/>
<circle class="st2" cx="155.45" cy="126.3" r="20.59"/>
<line class="st2" x1="175.98" y1="124.66" x2="135.2" y2="127.91"/>
<line class="st2" x1="164.3" y1="107.7" x2="146.72" y2="144.65"/>
</svg>
