<?xml version="1.0" encoding="utf-8"?>
<!-- Generator: Adobe Illustrator 27.9.0, SVG Export Plug-In . SVG Version: 6.00 Build 0)  -->
<svg version="1.1" id="Layer_1" xmlns="http://www.w3.org/2000/svg" xmlns:xlink="http://www.w3.org/1999/xlink" x="0px" y="0px"
	 viewBox="0 0 270 270" style="enable-background:new 0 0 270 270;" xml:space="preserve">
<style type="text/css">
	.st0{fill:#C9CBA3;}
	.st1{fill:none;stroke:#1D1D1B;stroke-width:14;stroke-miterlimit:10;}
	.st2{fill:none;stroke:#1D1D1B;stroke-width:5;stroke-miterlimit:10;}
	.st3{fill:#1D1D1B;stroke:#1D1D1B;stroke-width:5;stroke-miterlimit:10;}
</style>
<rect x="80.05" y="102.45" class="st0" width="108.6" height="39.15"/>
<line class="st1" x1="181.75" y1="38.45" x2="175.34" y2="64.32"/>
<rect x="76.05" y="66.54" class="st1" width="117.7" height="158.81"/>
<line class="st1" x1="76.05" y1="98.45" x2="193.75" y2="98.45"/>
<rect x="94" y="172.41" transform="matrix(-1.836970e-16 1 -1 -1.836970e-16 304.0288 75.853)" class="st2" width="40.17" height="35.06"/>
<rect x="134.79" y="139.54" transform="matrix(0.5601 0.8284 -0.8284 0.5601 198.2439 -59.2092)" class="st2" width="40.17" height="35.06"/>
<circle class="st2" cx="98.75" cy="126.11" r="7.66"/>
<circle class="st2" cx="134.9" cy="121.35" r="7.66"/>
<circle class="st2" cx="166.22" cy="197.6" r="7.66"/>
<circle class="st3" cx="98.75" cy="151.24" r="2.65"/>
<circle class="st3" cx="154.88" cy="114.53" r="2.65"/>
<circle class="st3" cx="120.04" cy="183.57" r="2.65"/>
<circle class="st3" cx="146.8" cy="195.4" r="2.65"/>
</svg>
