<?xml version="1.0" encoding="iso-8859-1"?>
<!-- Uploaded to: SVG Repo, www.svgrepo.com, Generator: SVG Repo Mixer Tools -->
<svg height="800px" width="800px" version="1.1" id="Layer_1" xmlns="http://www.w3.org/2000/svg" xmlns:xlink="http://www.w3.org/1999/xlink" 
	 viewBox="0 0 512 512" xml:space="preserve">
<path d="M235.85,134.452c-6.381,0-11.554-5.174-11.554-11.554c0-10.617,4.55-16.512,7.559-20.414
	c2.164-2.805,2.745-3.558,2.745-6.296c0-2.738-0.581-3.491-2.746-6.297c-3.01-3.902-7.559-9.796-7.559-20.413
	c0-10.615,4.55-16.511,7.559-20.412c2.164-2.805,2.745-3.557,2.745-6.294c0-6.38,5.173-11.554,11.554-11.554
	c6.381,0,11.554,5.174,11.554,11.554c0,10.615-4.55,16.511-7.559,20.412c-2.164,2.805-2.745,3.557-2.745,6.294
	c0,2.737,0.581,3.49,2.745,6.296c3.011,3.902,7.559,9.796,7.559,20.414s-4.55,16.511-7.559,20.413
	c-2.165,2.805-2.746,3.558-2.746,6.297C247.404,129.279,242.231,134.452,235.85,134.452z"/>
<path d="M288.278,157.84c-6.381,0-11.554-5.174-11.554-11.554c0-10.615,4.549-16.511,7.558-20.413
	c2.165-2.805,2.746-3.558,2.746-6.297c0-2.737-0.581-3.491-2.745-6.296c-3.01-3.902-7.559-9.796-7.559-20.414
	c0-10.615,4.55-16.51,7.559-20.41c2.164-2.804,2.745-3.557,2.745-6.294c0-6.38,5.173-11.554,11.554-11.554
	s11.554,5.174,11.554,11.554c0,10.617-4.55,16.511-7.559,20.412c-2.164,2.804-2.745,3.557-2.745,6.293
	c0,2.738,0.581,3.491,2.746,6.297c3.01,3.902,7.558,9.796,7.558,20.413s-4.55,16.512-7.559,20.414
	c-2.164,2.805-2.745,3.558-2.745,6.296C299.832,152.668,294.658,157.84,288.278,157.84z"/>
<path style="fill:#FFA5B5;" d="M381.899,469.226H155.843c-25.886,0-46.872-20.985-46.872-46.872V183.941h319.798v238.414
	C428.77,448.241,407.784,469.226,381.899,469.226z"/>
<path d="M380.309,411.302c-3.039,0-6.019-1.236-8.168-3.385c-2.149-2.149-3.385-5.13-3.385-8.168c0-0.763,0.081-1.515,0.231-2.264
	c0.15-0.741,0.37-1.456,0.659-2.161c0.289-0.693,0.647-1.363,1.063-1.987c0.416-0.637,0.901-1.226,1.433-1.757
	c0.531-0.531,1.121-1.017,1.756-1.444c0.624-0.415,1.294-0.774,1.999-1.063c0.693-0.289,1.421-0.507,2.161-0.659
	c1.49-0.3,3.027-0.3,4.517,0c0.728,0.151,1.456,0.37,2.161,0.659c0.693,0.289,1.363,0.648,1.987,1.063
	c0.635,0.427,1.225,0.913,1.756,1.444c0.531,0.531,1.017,1.121,1.444,1.757c0.416,0.624,0.774,1.294,1.063,1.987
	c0.289,0.705,0.508,1.42,0.659,2.161c0.15,0.75,0.22,1.502,0.22,2.264c0,3.039-1.225,6.019-3.385,8.168
	C386.328,410.066,383.359,411.302,380.309,411.302z"/>
<polygon style="fill:#FFC674;" points="341.715,188.62 290.765,233.124 290.976,305.134 392.454,305.134 392.665,233.124 "/>
<path style="fill:#A5BA6B;" d="M252.074,440.499c-38.691,38.691-113.935,26.173-113.935,26.173s-12.516-75.246,26.173-113.935
	s113.935-26.173,113.935-26.173S290.764,401.808,252.074,440.499z"/>
<path style="fill:#E0E381;" d="M39.692,440.499c38.691,38.691,113.935,26.173,113.935,26.173s12.516-75.246-26.173-113.935
	S13.517,326.564,13.517,326.564S1.001,401.808,39.692,440.499z"/>
<path d="M467.755,212.87h-27.432v-28.929c0-6.38-5.173-11.554-11.554-11.554H108.973c-6.381,0-11.554,5.174-11.554,11.554v137.578
	c-39.695-13.702-83.343-6.762-85.797-6.353c-4.872,0.81-8.691,4.628-9.502,9.502c-0.551,3.311-13.004,81.596,29.4,124.001
	c26.361,26.361,66.583,31.523,94.045,31.522c6.94,0,26.037,0.589,30.277,0.589h226.056c32.216,0,58.425-26.209,58.425-58.424
	v-68.009h27.432c24.396,0,44.244-19.848,44.244-44.244v-52.987C512,232.718,492.152,212.87,467.755,212.87z M143.209,456.273
	c-19.635,1.757-68.414,2.991-95.348-23.945c-26.844-26.844-25.658-75.723-23.926-95.366c19.636-1.76,68.413-2.99,95.348,23.945
	C146.128,387.75,144.941,436.63,143.209,456.273z M243.904,432.328c-20.592,20.593-54.148,24.691-77.53,24.7
	c1.37-16.235,2.023-46.879-8.063-75.293c3.518-7.655,8.134-14.792,14.17-20.829c26.845-26.842,75.723-25.659,95.366-23.926
	C269.609,356.613,270.841,405.392,243.904,432.328L243.904,432.328z M417.217,422.354c0,19.474-15.843,35.317-35.318,35.317H249.644
	c3.718-2.685,7.27-5.674,10.599-9.004c10.752-10.752,17.973-23.811,22.759-37.37h57.693c6.381,0,11.554-5.174,11.554-11.554
	s-5.173-11.554-11.554-11.554h-51.723c5.665-32.234,1.005-61.526,0.672-63.524c-0.81-4.873-4.628-8.691-9.502-9.502
	c-3.311-0.552-81.596-13.004-124.001,29.4c-3.861,3.861-7.251,8.029-10.25,12.403c-3.003-4.375-6.406-8.539-10.27-12.403
	c-4.649-4.649-9.73-8.639-15.096-12.057V195.494h195.758l-33.118,28.929c-2.521,2.201-3.963,5.389-3.952,8.736l0.211,72.009
	c0.018,6.368,5.186,11.52,11.554,11.52h101.478c6.367,0,11.535-5.152,11.554-11.52l0.21-72.009c0.009-3.346-1.433-6.534-3.952-8.736
	l-33.118-28.929h50.068v226.86H417.217z M341.715,203.961l39.38,34.398l-0.162,55.22h-78.439l-0.162-55.22L341.715,203.961z
	 M488.893,310.101c0,11.655-9.482,21.137-21.137,21.137h-27.432v-95.261h27.432c11.655,0,21.137,9.482,21.137,21.137V310.101z"/>
</svg>