<?xml version="1.0" encoding="utf-8"?>
<!-- Generator: Adobe Illustrator 27.9.0, SVG Export Plug-In . SVG Version: 6.00 Build 0)  -->
<svg version="1.1" id="Layer_1" xmlns="http://www.w3.org/2000/svg" xmlns:xlink="http://www.w3.org/1999/xlink" x="0px" y="0px"
	 viewBox="0 0 270 270" style="enable-background:new 0 0 270 270;" xml:space="preserve">
<style type="text/css">
	.st0{fill:#C9CBA3;}
	.st1{fill:none;stroke:#1D1D1B;stroke-width:14;stroke-miterlimit:10;}
</style>
<path class="st0" d="M103.22,119.17c28.88,0.23,57.76,0.45,86.64,0.68c0.49,2.5,0.93,6.2,0.34,10.55c-0.49,3.6-1.65,7.4-5.62,14.47
	c-4.96,8.83-7.44,13.24-11.23,16.51c-10.86,9.35-25.81,7.75-29.79,7.32c-4.66-0.5-19.53-2.83-30.47-16.17
	C101.42,138.3,102.9,122.12,103.22,119.17z"/>
<path class="st1" d="M147.02,173.43L147.02,173.43c-25.76,0-46.64-20.88-46.64-46.64V95.68h93.28v31.11
	C193.66,152.55,172.78,173.43,147.02,173.43z"/>
<line class="st1" x1="102.46" y1="95.68" x2="69.14" y2="95.68"/>
</svg>
