<?xml version="1.0" encoding="utf-8"?>
<!-- Generator: Adobe Illustrator 27.9.0, SVG Export Plug-In . SVG Version: 6.00 Build 0)  -->
<svg version="1.1" id="Layer_1" xmlns="http://www.w3.org/2000/svg" xmlns:xlink="http://www.w3.org/1999/xlink" x="0px" y="0px"
	 viewBox="0 0 270 270" style="enable-background:new 0 0 270 270;" xml:space="preserve">
<style type="text/css">
	.st0{fill:none;stroke:#1D1D1B;stroke-width:5;stroke-miterlimit:10;}
	.st1{fill:#FFFFFF;stroke:#1D1D1B;stroke-width:5;stroke-miterlimit:10;}
</style>
<rect x="92.32" y="85.59" class="st0" width="85.15" height="117.7"/>
<g>
	<path d="M135.72,159.07h30.91v5.07h-21.17l21.17,9.43v3.51l-21.17,9.47h21.17v5.07h-30.91v-5.47l24.24-10.85l-24.24-10.81V159.07z"
		/>
	<path d="M135.72,147.33h30.91v5.07h-30.91V147.33z"/>
	<path d="M162.53,135.59v-10.45h4.09v15.52h-30.91v-5.07H162.53z"/>
	<path d="M166.62,103.88l-13.83,11.96h13.83v5.07h-30.91v-5.07h14.1l-14.1-12.01v-6.36l15.48,13.43l15.43-13.65V103.88z"/>
</g>
<line class="st0" x1="123.98" y1="85.59" x2="123.98" y2="203.29"/>
<line class="st0" x1="92.32" y1="85.59" x2="109.89" y2="68.02"/>
<line class="st0" x1="123.98" y1="85.59" x2="108.15" y2="69.76"/>
<line class="st0" x1="177.47" y1="85.59" x2="159.92" y2="68.03"/>
<line class="st0" x1="108.15" y1="68.76" x2="161.62" y2="68.76"/>
<rect x="133.34" y="65.82" class="st1" width="18.64" height="10.98"/>
<line class="st0" x1="92.32" y1="203.29" x2="109.93" y2="185.68"/>
<line class="st0" x1="123.98" y1="203.29" x2="108.15" y2="187.46"/>
<line class="st0" x1="108.15" y1="69.76" x2="108.15" y2="186.37"/>
</svg>
