<?xml version="1.0" encoding="utf-8"?><!-- Uploaded to: SVG Repo, www.svgrepo.com, Generator: SVG Repo Mixer Tools -->
<svg fill="#000000" width="800px" height="800px" viewBox="0 0 24 24" id="tea-left" data-name="Flat Line" xmlns="http://www.w3.org/2000/svg" class="icon flat-line"><path id="secondary" d="M19,3H9A1,1,0,0,0,8,4V9a100.07,100.07,0,0,0,.88,11.13,1,1,0,0,0,1,.87h8.26a1,1,0,0,0,1-.87A100.07,100.07,0,0,0,20,9V4A1,1,0,0,0,19,3Zm-3,9H12V8l2-1,2,1Z" style="fill: rgb(44, 169, 188); stroke-width: 2;"></path><path id="primary" d="M7.79,6H5A1,1,0,0,0,4,7V9.54A5.71,5.71,0,0,0,8.13,15" style="fill: none; stroke: rgb(0, 0, 0); stroke-linecap: round; stroke-linejoin: round; stroke-width: 2;"></path><path id="primary-2" data-name="primary" d="M12,8v4h4V8L14,7Zm2-1V3m5,0a1,1,0,0,1,1,1V9a100.07,100.07,0,0,1-.88,11.13,1,1,0,0,1-1,.87H9.87a1,1,0,0,1-1-.87A100.07,100.07,0,0,1,8,9V4A1,1,0,0,1,9,3Z" style="fill: none; stroke: rgb(0, 0, 0); stroke-linecap: round; stroke-linejoin: round; stroke-width: 2;"></path></svg>