<?xml version="1.0" encoding="utf-8"?>
<!-- Generator: Adobe Illustrator 27.9.0, SVG Export Plug-In . SVG Version: 6.00 Build 0)  -->
<svg version="1.1" id="Layer_1" xmlns="http://www.w3.org/2000/svg" xmlns:xlink="http://www.w3.org/1999/xlink" x="0px" y="0px"
	 viewBox="0 0 270 270" style="enable-background:new 0 0 270 270;" xml:space="preserve">
<style type="text/css">
	.st0{fill:none;stroke:#1D1D1B;stroke-width:5;stroke-miterlimit:10;}
</style>
<rect x="86.02" y="110.99" class="st0" width="97.76" height="47.13"/>
<g>
	<path d="M106.99,125.43v2.45h-4.87v15.85h-3v-15.85h-4.9v-2.45H106.99z"/>
	<path d="M113.67,142.72c-1.43-0.8-2.56-1.91-3.4-3.34c-0.83-1.43-1.25-3.04-1.25-4.83c0-1.79,0.42-3.4,1.25-4.82
		c0.83-1.42,1.97-2.53,3.4-3.33c1.43-0.8,3-1.2,4.7-1.2c1.72,0,3.3,0.4,4.73,1.2c1.43,0.8,2.56,1.91,3.38,3.33
		c0.82,1.42,1.24,3.03,1.24,4.82c0,1.79-0.41,3.4-1.24,4.83c-0.83,1.43-1.95,2.55-3.38,3.34c-1.43,0.8-3.01,1.2-4.73,1.2
		C116.67,143.92,115.1,143.52,113.67,142.72z M121.61,140.48c0.95-0.55,1.69-1.34,2.23-2.37c0.54-1.03,0.8-2.22,0.8-3.57
		c0-1.35-0.27-2.54-0.8-3.56c-0.54-1.02-1.28-1.8-2.23-2.34c-0.95-0.54-2.03-0.82-3.24-0.82c-1.21,0-2.29,0.27-3.24,0.82
		c-0.95,0.54-1.69,1.33-2.22,2.34c-0.54,1.02-0.8,2.2-0.8,3.56c0,1.35,0.27,2.54,0.8,3.57c0.54,1.03,1.28,1.82,2.22,2.37
		c0.95,0.55,2.03,0.83,3.24,0.83C119.58,141.31,120.66,141.04,121.61,140.48z"/>
	<path d="M150.76,130.7c-0.47-0.91-1.13-1.6-1.97-2.07c-0.84-0.46-1.82-0.7-2.92-0.7c-1.21,0-2.29,0.27-3.24,0.82
		c-0.95,0.54-1.69,1.32-2.22,2.32c-0.54,1-0.8,2.16-0.8,3.48c0,1.32,0.27,2.48,0.8,3.49c0.54,1.01,1.28,1.79,2.22,2.33
		c0.95,0.54,2.03,0.82,3.24,0.82c1.63,0,2.96-0.46,3.98-1.37c1.02-0.91,1.64-2.15,1.87-3.71h-6.87v-2.4h10.09v2.34
		c-0.19,1.42-0.7,2.73-1.51,3.92c-0.82,1.19-1.88,2.15-3.19,2.86c-1.31,0.71-2.76,1.07-4.36,1.07c-1.72,0-3.29-0.4-4.71-1.2
		s-2.55-1.91-3.38-3.33c-0.83-1.42-1.25-3.03-1.25-4.82c0-1.79,0.42-3.4,1.25-4.82c0.83-1.42,1.97-2.53,3.4-3.33
		c1.43-0.8,3-1.2,4.7-1.2c1.95,0,3.68,0.48,5.2,1.44c1.52,0.96,2.62,2.31,3.3,4.07H150.76z"/>
	<path d="M161.52,142.72c-1.43-0.8-2.56-1.91-3.4-3.34c-0.83-1.43-1.25-3.04-1.25-4.83c0-1.79,0.42-3.4,1.25-4.82
		c0.83-1.42,1.97-2.53,3.4-3.33c1.43-0.8,3-1.2,4.7-1.2c1.72,0,3.3,0.4,4.73,1.2c1.43,0.8,2.56,1.91,3.38,3.33
		c0.82,1.42,1.24,3.03,1.24,4.82c0,1.79-0.41,3.4-1.24,4.83c-0.83,1.43-1.95,2.55-3.38,3.34c-1.43,0.8-3.01,1.2-4.73,1.2
		C164.52,143.92,162.95,143.52,161.52,142.72z M169.46,140.48c0.95-0.55,1.69-1.34,2.23-2.37c0.54-1.03,0.8-2.22,0.8-3.57
		c0-1.35-0.27-2.54-0.8-3.56c-0.54-1.02-1.28-1.8-2.23-2.34c-0.95-0.54-2.03-0.82-3.24-0.82c-1.21,0-2.29,0.27-3.24,0.82
		c-0.95,0.54-1.69,1.33-2.22,2.34c-0.54,1.02-0.8,2.2-0.8,3.56c0,1.35,0.27,2.54,0.8,3.57c0.54,1.03,1.28,1.82,2.22,2.37
		c0.95,0.55,2.03,0.83,3.24,0.83C167.43,141.31,168.51,141.04,169.46,140.48z"/>
</g>
</svg>
