<?xml version="1.0" encoding="iso-8859-1"?>
<!-- Uploaded to: SVG Repo, www.svgrepo.com, Generator: SVG Repo Mixer Tools -->
<svg height="800px" width="800px" version="1.1" id="Layer_1" xmlns="http://www.w3.org/2000/svg" xmlns:xlink="http://www.w3.org/1999/xlink" 
	 viewBox="0 0 512.002 512.002" xml:space="preserve">
<path style="fill:#E6E6E6;" d="M310.452,467.797h78.462l0,0c0,19.447-15.765,35.212-35.212,35.212H100.233
	c-19.447,0-35.212-15.765-35.212-35.212l0,0h219.852"/>
<polyline style="fill:#F2F2F2;" points="334.34,467.797 384.846,193.81 69.089,193.81 119.595,467.797 "/>
<ellipse style="fill:#C4A174;" cx="226.972" cy="330.797" rx="55.904" ry="85.66"/>
<path d="M450.57,281.912c-7.691-13.98-21.809-22.326-37.764-22.326h-30.92l11.829-64.167c0.485-2.633-0.226-5.346-1.938-7.405
	c-1.713-2.057-4.251-3.247-6.93-3.247H69.088c-2.677,0-5.217,1.19-6.93,3.248c-1.713,2.057-2.423,4.771-1.937,7.403l6.182,33.535
	c0.903,4.897,5.604,8.134,10.503,7.233c4.897-0.902,8.136-5.605,7.233-10.502l-4.219-22.883h294.097l-47.182,255.952h-11.573
	c-4.981,0-9.017,4.037-9.017,9.017c0,4.98,4.036,9.017,9.017,9.017h63.038c-3.682,10.016-13.32,17.18-24.598,17.18h-253.47
	c-11.277,0-20.914-7.163-24.597-17.18h209.235c4.981,0,9.017-4.037,9.017-9.017c0-4.98-4.036-9.017-9.017-9.017H127.102
	L89.908,256.988c-0.902-4.897-5.602-8.131-10.502-7.233c-4.898,0.903-8.136,5.605-7.234,10.503l36.591,198.496H65.021
	c-4.98,0-9.017,4.037-9.017,9.017c0,24.389,19.841,44.231,44.229,44.231h253.467c24.389,0,44.23-19.842,44.23-44.231
	c0-4.98-4.036-9.017-9.017-9.017h-43.744l8.235-44.675c26.202-1.797,49.84-15.788,64.046-38.204l31.76-50.115
	C457.753,312.283,458.261,295.892,450.57,281.912z M433.98,316.107l-31.76,50.115c-10.255,16.182-26.802,26.729-45.404,29.36
	l21.745-117.963h34.245c9.28,0,17.49,4.855,21.964,12.984C439.242,298.735,438.948,308.269,433.98,316.107z"/>
<path d="M228.588,99.609c0,9.931-3.619,14.394-8.627,20.573c-4.659,5.746-9.938,12.258-11.895,23.087
	c-0.886,4.9,2.368,9.591,7.269,10.478c0.542,0.099,1.082,0.145,1.615,0.145c4.278,0,8.074-3.056,8.863-7.414
	c1.135-6.276,4.233-10.099,8.157-14.939c5.637-6.954,12.652-15.608,12.652-31.93c0-16.311-7.015-24.961-12.651-31.911
	c-5.01-6.176-8.628-10.639-8.628-20.566c0-9.917,3.618-14.379,8.625-20.555c3.098-3.82,6.609-8.15,9.138-13.954
	c1.99-4.565-0.099-9.879-4.663-11.869c-4.565-1.99-9.879,0.099-11.869,4.663c-1.55,3.556-3.896,6.451-6.614,9.802
	c-5.636,6.951-12.651,15.604-12.651,31.912c0,16.32,7.016,24.973,12.655,31.926C224.972,85.23,228.588,89.691,228.588,99.609z"/>
<path d="M314.224,99.609c0,9.931-3.619,14.394-8.629,20.573c-4.657,5.746-9.937,12.258-11.895,23.088
	c-0.885,4.9,2.37,9.591,7.27,10.476c0.542,0.099,1.081,0.145,1.615,0.145c4.278,0,8.075-3.056,8.863-7.414
	c1.134-6.276,4.233-10.098,8.156-14.938c5.637-6.954,12.652-15.608,12.652-31.93c0-16.312-7.015-24.961-12.651-31.911
	c-5.009-6.176-8.628-10.639-8.628-20.566c0-9.916,3.619-14.378,8.626-20.555c3.097-3.82,6.609-8.15,9.138-13.954
	c1.99-4.565-0.097-9.879-4.662-11.869c-4.572-1.99-9.88,0.1-11.869,4.663c-1.551,3.556-3.896,6.451-6.615,9.802
	c-5.636,6.951-12.651,15.604-12.651,31.912c0,16.32,7.017,24.973,12.655,31.926C310.607,85.23,314.224,89.691,314.224,99.609z"/>
<path d="M142.952,99.609c0,9.929-3.618,14.393-8.624,20.57c-4.657,5.747-9.937,12.262-11.888,23.095
	c-0.882,4.9,2.374,9.59,7.276,10.473c0.541,0.097,1.078,0.144,1.609,0.144c4.28,0,8.078-3.06,8.864-7.42
	c1.13-6.276,4.228-10.098,8.15-14.938c5.635-6.953,12.646-15.605,12.646-31.924c0-16.31-7.011-24.96-12.644-31.91
	c-5.006-6.177-8.624-10.64-8.624-20.568c0-9.92,3.616-14.382,8.621-20.56c3.095-3.82,6.602-8.148,9.131-13.95
	c1.99-4.565-0.099-9.879-4.663-11.869s-9.879,0.099-11.869,4.663c-1.55,3.556-3.895,6.451-6.61,9.802
	c-5.634,6.951-12.644,15.604-12.644,31.912c0,16.319,7.013,24.972,12.648,31.923C139.337,85.229,142.952,89.689,142.952,99.609z"/>
<path d="M226.967,425.45c18.081,0,34.799-10.362,47.079-29.177c11.503-17.627,17.839-40.887,17.839-65.496
	c0-24.609-6.336-47.868-17.839-65.496c-12.28-18.815-28.999-29.177-47.079-29.177c-18.081,0-34.8,10.362-47.08,29.177
	c-11.504,17.627-17.839,40.887-17.839,65.496c0,24.609,6.336,47.868,17.839,65.496C192.167,415.088,208.887,425.45,226.967,425.45z
	 M226.967,254.139c25.414,0,46.884,35.096,46.884,76.639c0,36.517-16.592,68.043-37.867,75.139v-77.456
	c0-4.98-4.037-9.017-9.017-9.017c-4.98,0-9.017,4.037-9.017,9.017v77.456c-21.276-7.096-37.868-38.621-37.868-75.139
	C180.082,289.235,201.553,254.139,226.967,254.139z"/>
<path d="M226.967,308.623c4.98,0,9.017-4.037,9.017-9.017v-24.428c0-4.98-4.037-9.017-9.017-9.017c-4.98,0-9.017,4.037-9.017,9.017
	v24.428C217.951,304.586,221.988,308.623,226.967,308.623z"/>
</svg>